<?xml version="1.0" encoding="UTF-8" standalone="no"?>
<svg
   width="5in"
   height="1.66667in"
   viewBox="0 0 1500 500"
   version="1.1"
   id="svg1"
   sodipodi:docname="header.svg"
   inkscape:version="1.4.2 (ebf0e940d0, 2025-05-08)"
   xmlns:inkscape="http://www.inkscape.org/namespaces/inkscape"
   xmlns:sodipodi="http://sodipodi.sourceforge.net/DTD/sodipodi-0.dtd"
   xmlns="http://www.w3.org/2000/svg"
   xmlns:svg="http://www.w3.org/2000/svg">
  <defs
     id="defs1" />
  <sodipodi:namedview
     id="namedview1"
     pagecolor="#ffffff"
     bordercolor="#000000"
     borderopacity="0.25"
     inkscape:showpageshadow="2"
     inkscape:pageopacity="0.0"
     inkscape:pagecheckerboard="0"
     inkscape:deskcolor="#d1d1d1"
     inkscape:document-units="in"
     inkscape:zoom="3.61875"
     inkscape:cx="240"
     inkscape:cy="80"
     inkscape:window-width="1920"
     inkscape:window-height="1008"
     inkscape:window-x="0"
     inkscape:window-y="0"
     inkscape:window-maximized="1"
     inkscape:current-layer="svg1" />
  <path
     id="Selection #1"
     fill="none"
     stroke="black"
     stroke-width="1"
     d="M 159.00,280.00            C 154.71,288.92 145.27,303.59 137.00,308.87              121.76,318.59 98.59,313.82 90.49,297.00              82.14,279.67 81.97,248.34 82.00,229.00              82.00,229.00 83.00,210.00 83.00,210.00              83.00,210.00 83.91,200.00 83.91,200.00              83.91,200.00 87.85,159.00 87.85,159.00              92.82,117.35 102.05,73.24 117.06,34.00              120.83,24.16 128.58,10.78 137.00,4.42              144.92,-1.56 154.91,0.27 159.91,9.00              162.37,13.29 163.68,23.90 164.02,29.00              164.02,29.00 165.00,40.00 165.00,40.00              165.00,40.00 165.00,62.00 165.00,62.00              164.81,77.99 158.62,109.72 153.48,125.00              153.48,125.00 147.05,142.00 147.05,142.00              147.05,142.00 129.69,186.00 129.69,186.00              129.69,186.00 115.58,215.00 115.58,215.00              115.58,215.00 103.00,243.00 103.00,243.00              102.30,245.90 102.93,249.88 103.00,253.00              103.25,263.86 105.92,280.64 113.52,288.79              124.64,300.71 137.62,283.98 143.19,275.00              155.83,254.60 157.58,244.49 162.58,222.00              162.58,222.00 168.45,195.00 168.45,195.00              173.31,185.43 191.92,180.71 190.83,194.00              190.83,194.00 189.27,203.00 189.27,203.00              189.27,203.00 185.58,227.00 185.58,227.00              185.58,227.00 182.00,261.00 182.00,261.00              181.94,266.07 181.65,278.68 182.68,283.00              183.16,285.02 184.30,288.75 186.53,289.45              190.69,290.76 199.97,280.05 202.24,277.00              215.10,259.71 219.69,243.57 223.80,223.00              225.28,215.58 225.79,205.48 232.04,200.56              239.58,194.63 247.68,196.93 251.00,195.91              258.57,193.59 261.28,187.03 278.00,187.00              285.78,186.99 290.56,186.33 298.00,189.46              314.17,196.27 317.99,211.25 319.09,227.00              319.40,231.39 320.16,232.95 319.96,238.00              319.02,262.18 309.62,283.15 290.00,298.00              296.48,297.70 299.97,296.34 306.00,294.33              311.52,292.49 316.99,290.80 322.00,287.73              337.19,278.43 349.48,256.31 352.74,239.00              352.74,239.00 359.57,205.00 359.57,205.00              360.94,196.82 361.22,189.91 371.00,187.53              373.98,186.81 381.80,186.03 383.40,189.31              385.14,192.87 381.67,205.65 380.80,210.00              377.75,225.26 374.18,243.51 374.00,259.00              373.86,271.47 381.25,300.04 399.00,290.59              401.09,289.48 403.07,287.96 404.83,286.38              407.62,283.87 410.80,280.11 412.91,277.00              424.99,259.17 428.13,237.83 431.75,217.00              431.75,217.00 434.94,197.00 434.94,197.00              437.13,189.73 446.67,184.35 453.94,186.43              461.28,188.53 456.56,204.52 455.58,210.00              455.58,210.00 447.91,263.00 447.91,263.00              447.91,263.00 447.03,272.00 447.03,272.00              447.03,276.23 447.65,289.06 452.13,290.64              457.12,292.40 465.62,282.45 468.33,279.00              471.05,275.54 473.39,271.81 475.57,268.00              479.58,261.00 482.97,253.61 485.66,246.00              486.34,244.07 487.20,241.00 488.70,239.60              489.63,238.72 490.72,238.29 492.00,238.29              496.86,238.29 496.95,243.46 497.00,247.00              497.00,247.00 497.00,253.00 497.00,253.00              496.90,261.28 494.12,266.63 490.86,274.00              484.93,287.40 472.87,307.98 458.00,312.21              454.73,313.14 451.37,313.02 448.00,313.00              445.70,312.99 443.21,313.04 441.00,312.35              429.70,308.81 429.64,296.82 426.00,289.00              422.26,296.09 413.14,306.35 406.00,310.01              399.37,313.40 384.16,314.20 377.00,312.22              372.04,310.84 366.93,307.93 363.09,304.54              354.37,296.84 355.03,290.48 351.00,281.00              348.66,286.98 344.58,290.60 340.00,294.96              327.85,306.53 308.77,313.97 292.00,313.96              292.00,313.96 276.00,313.96 276.00,313.96              276.00,313.96 265.00,313.04 265.00,313.04              265.00,313.04 257.00,313.91 257.00,313.91              244.96,314.73 243.82,313.44 233.00,311.00              233.00,311.00 221.71,355.00 221.71,355.00              221.71,355.00 202.15,424.00 202.15,424.00              202.15,424.00 189.88,469.00 189.88,469.00              189.88,469.00 183.70,492.98 183.70,492.98              179.45,501.04 166.73,501.92 166.04,490.00              165.66,483.34 169.04,469.98 170.58,463.00              170.58,463.00 179.35,422.00 179.35,422.00              179.35,422.00 195.58,347.00 195.58,347.00              195.58,347.00 206.00,303.00 206.00,303.00              202.68,306.16 200.17,308.54 196.00,310.62              191.14,313.06 180.09,314.21 175.00,312.15              171.88,310.88 168.57,307.71 166.65,305.00              162.80,299.56 161.35,287.09 159.00,280.00 Z            M 1273.00,286.00            C 1265.55,292.91 1262.65,303.91 1251.00,310.02              1235.63,318.08 1214.25,313.10 1206.49,297.00              1198.18,279.74 1197.78,246.37 1198.00,227.00              1198.00,227.00 1199.00,213.00 1199.00,213.00              1199.00,213.00 1201.83,178.00 1201.83,178.00              1205.87,137.59 1212.23,96.70 1225.00,58.00              1230.58,41.11 1234.70,24.91 1246.44,11.00              1251.67,4.80 1259.22,-1.61 1268.00,1.74              1275.42,4.57 1277.53,12.00 1278.75,19.00              1281.25,33.35 1281.17,47.49 1281.00,62.00              1280.81,77.99 1274.62,109.72 1269.48,125.00              1269.48,125.00 1263.05,142.00 1263.05,142.00              1256.59,159.68 1250.19,177.13 1241.75,194.00              1241.75,194.00 1225.14,229.00 1225.14,229.00              1223.45,232.80 1219.88,239.28 1219.00,243.00              1218.30,245.90 1218.93,249.88 1219.00,253.00              1219.21,262.25 1221.36,276.02 1226.09,284.00              1227.16,285.80 1228.80,288.20 1230.32,289.61              1242.13,300.53 1255.10,281.89 1260.40,273.00              1263.34,268.05 1268.85,257.30 1270.76,252.00              1270.76,252.00 1273.44,242.00 1273.44,242.00              1275.36,235.50 1280.87,223.67 1284.55,218.00              1289.40,210.52 1297.91,203.06 1305.00,197.65              1312.61,191.85 1324.11,185.48 1334.00,186.18              1340.29,186.63 1349.16,188.18 1355.00,190.46              1355.00,190.46 1363.00,194.04 1363.00,194.04              1369.19,196.19 1375.61,193.13 1374.83,203.00              1374.83,203.00 1370.43,230.00 1370.43,230.00              1370.43,230.00 1366.96,266.00 1366.96,266.00              1366.96,266.00 1366.32,275.00 1366.32,275.00              1366.73,280.42 1366.99,294.87 1376.00,289.84              1376.00,289.84 1379.96,286.98 1379.96,286.98              1379.96,286.98 1384.41,282.83 1384.41,282.83              1392.67,274.01 1397.99,262.98 1402.72,252.00              1403.87,249.34 1407.12,240.08 1408.70,238.60              1409.82,237.54 1411.35,237.07 1412.87,237.37              1417.84,238.36 1417.04,248.20 1417.00,252.00              1416.91,259.63 1415.22,263.09 1412.40,270.00              1407.40,282.23 1397.68,300.29 1387.00,308.07              1378.74,314.10 1363.53,316.69 1355.09,309.61              1349.15,304.62 1347.96,296.75 1345.00,290.00              1340.96,297.53 1331.12,307.77 1323.00,310.93              1316.28,313.55 1311.04,313.08 1304.00,313.00              1288.16,312.81 1275.46,301.65 1273.00,286.00 Z            M 141.00,24.00            C 132.50,32.34 127.17,53.38 124.12,65.00              115.30,98.59 109.95,128.61 105.72,163.00              105.72,163.00 102.98,195.00 102.98,195.00              102.74,199.92 101.11,203.23 102.98,208.00              102.98,208.00 127.66,145.00 127.66,145.00              127.66,145.00 138.80,98.00 138.80,98.00              138.80,98.00 144.09,60.00 144.09,60.00              144.09,60.00 144.68,52.00 144.68,52.00              144.68,52.00 141.00,24.00 141.00,24.00 Z            M 1257.00,24.00            C 1248.50,32.34 1243.17,53.38 1240.12,65.00              1231.30,98.59 1225.95,128.61 1221.72,163.00              1221.72,163.00 1218.98,195.00 1218.98,195.00              1218.74,199.92 1217.11,203.23 1218.98,208.00              1218.98,208.00 1243.66,145.00 1243.66,145.00              1243.66,145.00 1254.80,98.00 1254.80,98.00              1254.80,98.00 1260.09,60.00 1260.09,60.00              1260.09,60.00 1260.68,52.00 1260.68,52.00              1260.68,52.00 1257.00,24.00 1257.00,24.00 Z            M 194.00,110.47            C 196.81,110.08 201.17,109.36 203.40,111.60              205.40,113.60 205.09,118.37 204.83,121.00              203.99,129.71 201.86,136.90 192.00,138.67              189.72,139.08 183.44,139.43 181.60,137.98              179.92,136.65 180.02,133.94 180.01,132.00              179.98,127.47 180.99,119.78 183.70,116.10              186.37,112.47 189.85,111.46 194.00,110.47 Z            M 766.00,112.77            C 773.13,113.36 772.97,116.83 773.00,123.00              773.00,123.00 772.35,157.00 772.35,157.00              770.63,162.48 764.86,167.89 759.00,168.36              748.15,169.23 751.99,157.61 752.00,151.00              752.00,151.00 752.00,137.00 752.00,137.00              752.00,126.03 752.10,114.80 766.00,112.77 Z            M 711.00,139.77            C 718.53,140.39 719.07,145.82 721.42,152.00              722.71,155.37 726.48,163.15 726.75,166.00              727.40,172.93 719.87,181.00 713.00,181.23              706.36,181.45 704.12,174.08 702.01,169.00              700.60,165.60 697.19,157.38 697.21,154.00              697.24,146.71 704.27,140.75 711.00,139.77 Z            M 827.00,139.77            C 835.82,140.50 834.61,147.04 831.07,153.00              828.16,157.90 817.16,170.83 812.99,174.98              809.85,178.09 806.68,181.07 802.00,181.23              793.95,181.50 794.26,174.22 797.61,169.00              797.61,169.00 807.39,157.00 807.39,157.00              812.95,150.20 817.63,141.14 827.00,139.77 Z            M 633.00,298.00            C 646.39,297.38 666.65,288.93 675.71,278.96              683.20,270.73 689.78,258.59 693.25,248.00              693.25,248.00 699.31,230.00 699.31,230.00              704.35,218.83 709.87,211.39 719.00,203.17              727.21,195.78 739.75,187.31 751.00,186.17              757.59,185.50 759.91,186.64 765.72,187.06              765.72,187.06 773.00,187.06 773.00,187.06              785.42,186.85 792.95,191.43 799.89,202.00              808.61,215.26 807.21,233.03 806.00,248.00              811.95,247.87 818.41,246.38 822.61,241.79              825.42,238.71 828.18,230.30 830.26,226.00              837.20,211.67 847.16,195.49 865.00,196.02              867.75,196.10 869.59,196.23 872.00,197.74              874.89,199.55 876.97,202.33 879.00,205.00              883.00,196.72 896.98,188.83 906.00,187.16              906.00,187.16 921.00,187.16 921.00,187.16              932.75,187.16 941.57,196.02 946.63,206.00              956.04,224.55 950.38,249.97 948.91,270.00              948.60,274.21 947.79,276.26 948.04,281.00              948.30,285.81 951.02,292.27 957.00,290.78              960.07,290.02 963.79,286.24 965.96,284.00              972.87,276.86 978.52,267.11 982.42,258.00              988.14,244.65 991.55,230.33 999.55,218.00              1004.54,210.31 1013.64,202.38 1021.00,196.90              1028.34,191.42 1039.57,185.51 1049.00,186.18              1055.29,186.63 1064.16,188.18 1070.00,190.46              1070.00,190.46 1078.00,194.04 1078.00,194.04              1084.19,196.19 1090.61,193.13 1089.83,203.00              1089.83,203.00 1085.28,231.00 1085.28,231.00              1085.28,231.00 1081.32,272.00 1081.32,272.00              1081.02,276.11 1081.84,290.28 1087.11,290.99              1090.86,291.49 1097.86,284.58 1100.25,281.91              1106.56,274.86 1112.27,264.71 1116.00,256.00              1116.00,256.00 1123.08,239.31 1123.08,239.31              1124.10,238.01 1125.30,237.29 1126.99,237.29              1132.06,237.29 1131.95,244.44 1132.00,248.00              1132.00,248.00 1132.00,252.00 1132.00,252.00              1131.91,259.63 1130.22,263.09 1127.40,270.00              1122.40,282.23 1112.68,300.29 1102.00,308.07              1093.74,314.10 1078.53,316.69 1070.09,309.61              1064.15,304.62 1062.96,296.75 1060.00,290.00              1055.96,297.53 1046.12,307.77 1038.00,310.93              1031.28,313.55 1026.04,313.08 1019.00,313.00              1003.16,312.81 990.46,301.65 988.00,286.00              981.70,291.84 978.74,300.57 968.00,308.21              955.82,316.88 936.88,313.94 931.14,299.00              929.61,295.01 929.02,288.31 929.00,284.00              929.00,284.00 929.00,265.00 929.00,265.00              929.00,265.00 929.96,253.00 929.96,253.00              929.96,253.00 929.96,238.00 929.96,238.00              929.93,224.15 924.41,198.62 905.00,205.71              902.32,206.69 900.27,207.79 898.00,209.53              894.90,211.90 892.08,214.94 889.67,218.00              872.66,239.59 869.31,266.76 864.58,293.00              862.74,303.17 862.99,312.63 850.00,312.98              848.06,313.04 844.14,313.20 842.60,311.98              840.93,310.66 841.01,307.93 841.02,306.00              841.02,306.00 843.25,290.00 843.25,290.00              843.25,290.00 851.42,244.00 851.42,244.00              852.61,236.36 855.03,228.75 854.00,221.00              846.13,229.28 842.25,237.66 837.85,248.00              835.28,254.04 833.77,261.51 827.98,265.13              820.96,269.83 808.47,267.42 801.00,265.13              794.16,280.89 788.51,288.02 776.00,299.96              768.58,307.04 760.57,312.87 750.00,313.00              750.00,313.00 731.00,313.00 731.00,313.00              721.73,312.88 715.04,309.37 708.00,303.54              700.51,297.32 697.62,291.11 693.00,283.00              683.08,301.47 655.52,313.97 635.00,313.96              635.00,313.96 619.00,313.96 619.00,313.96              619.00,313.96 608.00,313.04 608.00,313.04              608.00,313.04 600.00,313.91 600.00,313.91              587.96,314.73 586.82,313.44 576.00,311.00              576.00,311.00 555.42,388.00 555.42,388.00              555.42,388.00 536.88,454.00 536.88,454.00              536.88,454.00 527.52,491.00 527.52,491.00              523.75,501.42 509.75,502.33 509.04,490.00              508.66,483.34 512.04,469.98 513.58,463.00              513.58,463.00 522.58,421.00 522.58,421.00              522.58,421.00 545.88,315.00 545.88,315.00              545.88,315.00 555.63,279.00 555.63,279.00              555.63,279.00 566.00,227.00 566.00,227.00              567.03,221.83 569.19,207.78 571.72,204.04              578.25,194.39 591.10,196.80 594.00,195.91              594.00,195.91 609.00,188.55 609.00,188.55              614.90,186.47 622.70,186.93 629.00,187.00              656.41,187.33 662.11,213.00 662.96,235.00              663.14,239.55 662.58,240.88 662.17,245.00              659.98,266.87 650.80,284.53 633.00,298.00 Z            M 268.00,205.34            C 247.31,210.92 244.94,240.61 242.08,258.00              241.40,262.11 238.66,274.71 239.78,278.00              242.18,285.07 253.94,290.47 261.00,290.91              268.67,291.38 273.15,288.32 279.00,283.87              296.20,270.79 299.80,250.14 295.80,230.00              292.66,214.18 286.27,203.28 268.00,205.34 Z            M 611.00,205.34            C 590.31,210.92 587.94,240.61 585.08,258.00              584.40,262.11 581.66,274.71 582.78,278.00              585.18,285.07 596.94,290.47 604.00,290.91              611.67,291.38 616.15,288.32 622.00,283.87              639.20,270.79 642.80,250.14 638.80,230.00              635.66,214.18 629.27,203.28 611.00,205.34 Z            M 745.00,207.32            C 722.39,212.40 707.32,236.41 711.81,259.00              714.99,275.00 728.66,294.84 747.00,293.48              764.52,292.19 779.94,278.52 785.10,262.00              786.17,258.57 786.71,252.70 787.15,249.00              787.57,245.56 788.12,243.63 787.91,240.00              787.43,231.82 783.40,217.61 776.91,212.31              773.47,209.51 770.09,210.16 766.00,209.57              757.51,208.35 754.00,206.34 745.00,207.32 Z            M 1066.00,214.00            C 1057.27,210.24 1051.08,206.11 1041.00,207.17              1035.28,207.78 1029.85,210.05 1025.00,213.06              1008.73,223.17 1004.79,240.09 1005.00,258.00              1005.12,267.52 1009.05,282.08 1016.18,288.66              1029.18,300.65 1044.14,283.50 1050.91,273.00              1054.41,267.57 1058.68,260.32 1059.91,254.00              1059.91,254.00 1062.28,234.00 1062.28,234.00              1062.28,234.00 1066.00,214.00 1066.00,214.00 Z            M 1351.00,214.00            C 1342.27,210.24 1336.08,206.11 1326.00,207.17              1320.28,207.78 1314.85,210.05 1310.00,213.06              1293.73,223.17 1289.79,240.09 1290.00,258.00              1290.12,267.52 1294.05,282.08 1301.18,288.66              1314.18,300.65 1329.14,283.50 1335.91,273.00              1339.41,267.57 1343.68,260.32 1344.91,254.00              1344.91,254.00 1347.28,234.00 1347.28,234.00              1347.28,234.00 1351.00,214.00 1351.00,214.00 Z            M 734.00,261.76            C 742.24,260.36 742.05,268.81 752.00,267.64              756.79,267.07 763.10,262.98 766.69,264.61              769.92,266.09 768.37,269.86 766.69,271.90              763.62,275.61 757.60,277.98 753.00,279.10              746.71,280.63 739.58,280.66 734.00,277.03              726.74,272.30 725.93,266.05 734.00,261.76 Z            M 523.00,284.45            C 525.49,284.25 528.40,283.97 530.40,285.85              533.61,288.87 531.41,301.29 529.78,304.98              526.67,312.01 519.93,313.27 513.00,312.98              504.93,312.64 506.52,305.07 507.62,299.00              509.50,288.55 512.85,286.30 523.00,284.45 Z            M 1158.00,284.45            C 1160.49,284.25 1163.40,283.97 1165.40,285.85              1168.61,288.87 1166.41,301.29 1164.78,304.98              1161.67,312.01 1154.93,313.27 1148.00,312.98              1139.93,312.64 1141.52,305.07 1142.62,299.00              1144.50,288.55 1147.85,286.30 1158.00,284.45 Z"
     style="fill:#0068d3;fill-opacity:1;stroke:none" />
</svg>
