<?xml version="1.0" encoding="UTF-8" standalone="no"?>
<svg
   width="11.6667in"
   height="4.16667in"
   viewBox="0 0 3500 1250"
   version="1.1"
   id="svg1"
   sodipodi:docname="open-lapo.svg"
   inkscape:version="1.4 (e7c3feb100, 2024-10-09)"
   xmlns:inkscape="http://www.inkscape.org/namespaces/inkscape"
   xmlns:sodipodi="http://sodipodi.sourceforge.net/DTD/sodipodi-0.dtd"
   xmlns="http://www.w3.org/2000/svg"
   xmlns:svg="http://www.w3.org/2000/svg">
  <defs
     id="defs1" />
  <sodipodi:namedview
     id="namedview1"
     pagecolor="#ffffff"
     bordercolor="#000000"
     borderopacity="0.25"
     inkscape:showpageshadow="2"
     inkscape:pageopacity="0.0"
     inkscape:pagecheckerboard="0"
     inkscape:deskcolor="#d1d1d1"
     inkscape:document-units="in"
     inkscape:zoom="1.1008897"
     inkscape:cx="560.00162"
     inkscape:cy="200.29255"
     inkscape:window-width="1920"
     inkscape:window-height="1008"
     inkscape:window-x="0"
     inkscape:window-y="0"
     inkscape:window-maximized="1"
     inkscape:current-layer="svg1" />
  <path
     id="Selection"
     fill="none"
     stroke="black"
     stroke-width="1"
     d="M 2250.00,230.00            C 2250.74,221.17 2254.94,208.61 2259.45,201.00              2263.30,194.51 2270.24,186.45 2277.00,182.99              2295.37,173.59 2328.33,183.24 2342.91,196.44              2350.28,203.11 2357.07,214.61 2360.30,224.00              2367.07,243.64 2360.90,270.81 2342.00,281.64              2335.40,285.42 2325.49,286.08 2318.00,286.00              2304.44,285.84 2291.11,281.96 2278.00,279.00              2278.00,279.00 2278.00,329.00 2278.00,329.00              2278.00,329.00 2279.00,346.00 2279.00,346.00              2279.00,346.00 2279.00,634.00 2279.00,634.00              2279.00,634.00 2278.09,646.00 2278.09,646.00              2278.09,646.00 2275.95,670.00 2275.95,670.00              2275.55,673.58 2273.60,681.94 2275.06,684.91              2277.24,689.36 2294.05,700.16 2299.00,703.19              2313.97,712.36 2339.23,723.92 2357.00,723.92              2364.72,723.92 2377.01,720.42 2384.00,717.11              2394.04,712.36 2402.82,702.80 2409.37,694.00              2420.56,678.97 2429.94,662.16 2437.42,645.00              2437.42,645.00 2447.80,621.00 2447.80,621.00              2447.80,621.00 2456.24,600.05 2456.24,600.05              2458.48,595.50 2460.22,595.96 2462.59,591.95              2462.59,591.95 2469.31,576.00 2469.31,576.00              2479.87,546.33 2488.22,509.58 2502.78,482.00              2514.02,460.72 2541.18,435.63 2567.00,437.09              2567.00,437.09 2584.00,439.87 2584.00,439.87              2599.15,442.15 2603.06,442.92 2616.00,452.00              2619.96,439.83 2627.50,443.99 2634.38,451.29              2643.49,460.93 2646.98,471.99 2647.00,485.00              2647.00,485.00 2647.00,511.00 2647.00,511.00              2647.00,511.00 2646.00,528.00 2646.00,528.00              2646.00,528.00 2646.00,568.00 2646.00,568.00              2646.00,568.00 2645.00,585.00 2645.00,585.00              2645.00,585.00 2644.00,614.00 2644.00,614.00              2644.00,614.00 2643.00,630.00 2643.00,630.00              2643.00,630.00 2643.00,643.00 2643.00,643.00              2643.00,643.00 2642.34,652.00 2642.34,652.00              2642.34,652.00 2642.98,659.00 2642.98,659.00              2642.98,659.00 2642.98,674.00 2642.98,674.00              2643.06,678.42 2643.78,682.67 2644.61,687.00              2647.39,701.47 2653.15,709.65 2669.00,708.96              2683.41,708.33 2704.24,693.50 2712.23,682.00              2716.28,676.17 2719.74,667.64 2722.40,661.00              2735.61,627.99 2741.74,592.59 2749.42,558.00              2754.92,533.25 2760.09,513.61 2763.15,488.00              2763.15,488.00 2765.00,470.00 2765.00,470.00              2765.05,465.07 2764.47,454.15 2766.03,450.01              2767.06,447.28 2768.72,445.60 2771.02,443.86              2777.20,439.19 2781.62,441.87 2786.71,446.62              2795.89,455.18 2801.45,468.44 2800.96,481.00              2800.96,481.00 2800.00,494.00 2800.00,494.00              2799.99,502.35 2799.10,525.33 2801.00,532.00              2801.00,532.00 2826.12,497.00 2826.12,497.00              2826.12,497.00 2855.09,458.00 2855.09,458.00              2863.75,448.69 2870.73,441.69 2884.00,442.01              2901.20,442.43 2914.94,457.68 2923.66,471.00              2937.82,492.64 2943.31,519.54 2945.09,545.00              2945.09,545.00 2946.00,557.00 2946.00,557.00              2946.00,557.00 2946.00,582.00 2946.00,582.00              2946.00,582.00 2944.96,599.00 2944.96,599.00              2944.96,599.00 2944.96,612.00 2944.96,612.00              2944.96,612.00 2944.00,623.00 2944.00,623.00              2944.00,623.00 2944.00,647.00 2944.00,647.00              2944.00,647.00 2943.04,663.00 2943.04,663.00              2943.04,663.00 2944.00,680.00 2944.00,680.00              2944.00,682.38 2943.67,686.60 2945.60,688.54              2947.28,689.81 2950.02,689.19 2952.00,688.54              2957.46,687.57 2963.57,684.88 2968.00,681.47              2983.48,669.55 2995.11,647.88 3004.58,631.00              3009.36,622.46 3019.37,597.46 3021.49,588.00              3021.49,588.00 3027.42,553.00 3027.42,553.00              3033.32,526.32 3042.99,497.74 3056.58,474.00              3068.81,452.63 3088.92,428.94 3116.00,430.04              3122.67,430.31 3124.28,431.92 3130.00,434.05              3130.00,434.05 3138.00,436.82 3138.00,436.82              3149.22,442.21 3163.82,456.41 3171.75,466.00              3194.51,493.54 3209.83,524.94 3216.80,560.00              3218.43,568.22 3219.99,576.61 3220.00,585.00              3220.00,585.00 3220.00,607.00 3220.00,607.00              3219.88,617.00 3216.37,634.07 3213.87,644.00              3204.95,679.53 3185.19,718.11 3156.00,740.99              3143.15,751.06 3126.59,758.92 3110.00,759.00              3110.00,759.00 3097.00,759.00 3097.00,759.00              3079.68,758.79 3060.45,748.01 3049.44,735.00              3033.07,715.65 3032.15,705.78 3024.00,684.00              3017.81,696.85 2999.84,719.23 2988.00,726.47              2974.35,734.96 2956.46,735.45 2943.00,726.47              2938.00,723.04 2934.71,719.71 2931.01,715.00              2926.68,709.48 2922.96,703.56 2920.43,697.00              2915.05,683.07 2913.02,667.85 2913.00,653.00              2913.00,653.00 2912.00,638.00 2912.00,638.00              2912.00,638.00 2913.00,618.00 2913.00,618.00              2913.00,618.00 2913.00,595.00 2913.00,595.00              2913.00,595.00 2914.04,578.00 2914.04,578.00              2914.04,578.00 2914.04,565.00 2914.04,565.00              2914.04,565.00 2915.00,554.00 2915.00,554.00              2915.00,554.00 2915.00,532.00 2915.00,532.00              2914.87,521.27 2912.86,506.39 2910.12,496.00              2908.55,490.07 2906.53,484.45 2899.00,485.62              2888.91,487.20 2877.83,502.18 2872.15,510.00              2872.15,510.00 2820.35,580.00 2820.35,580.00              2816.68,584.74 2802.93,600.77 2801.56,605.00              2800.89,607.05 2801.00,609.83 2801.00,612.00              2801.00,612.00 2801.00,626.00 2801.00,626.00              2801.00,626.00 2800.00,641.00 2800.00,641.00              2800.00,641.00 2800.00,733.00 2800.00,733.00              2800.00,733.00 2799.00,748.00 2799.00,748.00              2799.00,748.00 2799.00,778.00 2799.00,778.00              2799.00,778.00 2798.00,795.00 2798.00,795.00              2798.00,795.00 2798.00,815.00 2798.00,815.00              2798.00,815.00 2797.00,830.00 2797.00,830.00              2797.00,830.00 2797.00,844.00 2797.00,844.00              2797.00,844.00 2795.96,858.00 2795.96,858.00              2795.96,858.00 2795.96,873.00 2795.96,873.00              2795.96,873.00 2795.00,885.00 2795.00,885.00              2795.00,885.00 2793.00,925.00 2793.00,925.00              2793.00,925.00 2792.00,942.00 2792.00,942.00              2792.00,942.00 2792.00,964.00 2792.00,964.00              2792.00,964.00 2791.00,981.00 2791.00,981.00              2791.00,981.00 2791.00,1018.00 2791.00,1018.00              2791.00,1018.00 2790.00,1041.00 2790.00,1041.00              2789.98,1044.86 2790.01,1050.75 2786.70,1053.40              2782.09,1057.08 2775.67,1051.78 2772.44,1048.56              2762.81,1038.97 2759.02,1027.30 2759.04,1014.00              2759.04,1014.00 2759.04,1001.00 2759.04,1001.00              2759.04,1001.00 2760.00,989.00 2760.00,989.00              2760.00,989.00 2760.00,952.00 2760.00,952.00              2760.00,952.00 2761.00,936.00 2761.00,936.00              2761.00,936.00 2761.00,913.00 2761.00,913.00              2761.00,913.00 2762.00,891.00 2762.00,891.00              2762.00,891.00 2763.00,875.00 2763.00,875.00              2763.00,875.00 2764.00,860.00 2764.00,860.00              2764.00,860.00 2765.00,831.00 2765.00,831.00              2765.00,831.00 2766.04,814.00 2766.04,814.00              2766.04,814.00 2766.04,798.00 2766.04,798.00              2766.04,798.00 2767.00,787.00 2767.00,787.00              2767.00,787.00 2767.00,766.00 2767.00,766.00              2767.00,766.00 2768.00,749.00 2768.00,749.00              2768.00,749.00 2768.00,719.00 2768.00,719.00              2768.00,719.00 2769.00,703.00 2769.00,703.00              2769.00,703.00 2769.00,674.00 2769.00,674.00              2769.00,666.09 2769.85,646.52 2768.00,640.00              2767.28,648.82 2763.51,661.29 2761.00,670.00              2755.65,688.55 2747.44,714.05 2733.91,727.96              2714.25,748.18 2686.50,761.67 2660.00,745.54              2655.73,742.94 2650.01,738.47 2646.59,734.83              2633.25,720.60 2627.96,709.13 2620.00,692.00              2617.53,698.72 2612.09,707.04 2607.98,713.00              2596.90,729.05 2575.40,752.99 2556.00,758.08              2551.35,759.30 2545.82,759.05 2541.00,759.00              2533.95,758.91 2527.90,756.75 2522.00,752.90              2517.77,750.14 2512.61,745.78 2509.29,742.00              2496.39,727.34 2488.86,710.06 2485.42,691.00              2485.42,691.00 2480.00,653.00 2480.00,653.00              2478.22,660.57 2468.15,681.18 2464.25,689.00              2454.92,707.66 2441.73,729.25 2427.00,744.00              2420.99,750.02 2416.61,754.96 2409.00,759.10              2397.69,765.25 2384.69,767.14 2372.00,767.00              2358.47,766.84 2343.24,761.82 2331.00,756.30              2307.93,745.91 2285.35,731.51 2267.00,714.00              2262.16,728.78 2258.42,746.19 2249.07,759.00              2246.16,763.00 2241.02,768.35 2237.00,771.21              2218.02,784.74 2194.19,776.29 2176.00,766.14              2144.70,748.67 2119.06,711.61 2119.00,675.00              2119.00,675.00 2119.00,664.00 2119.00,664.00              2119.22,645.91 2130.29,632.50 2146.00,624.76              2154.50,620.57 2158.77,619.68 2168.00,618.42              2181.93,616.52 2191.91,620.69 2204.00,626.75              2217.05,633.29 2232.55,645.78 2243.00,656.00              2243.00,656.00 2248.00,605.00 2248.00,605.00              2248.00,605.00 2248.00,422.00 2248.00,422.00              2248.00,422.00 2248.00,321.00 2248.00,321.00              2248.00,321.00 2247.00,306.00 2247.00,306.00              2247.00,306.00 2247.00,272.00 2247.00,272.00              2246.81,262.08 2243.22,265.40 2231.00,255.38              2216.85,243.79 2208.67,229.22 2203.45,212.00              2201.73,206.76 2199.46,196.84 2203.45,192.31              2208.34,187.04 2215.93,193.62 2219.38,197.29              2223.04,201.16 2226.17,206.14 2228.33,211.00              2229.53,213.68 2230.88,218.67 2232.56,220.61              2234.89,223.29 2246.26,228.39 2250.00,230.00 Z            M 2330.00,225.00            C 2330.00,225.00 2319.00,223.17 2319.00,223.17              2304.43,221.71 2291.82,225.84 2287.00,241.00              2304.58,244.15 2322.88,245.00 2330.00,225.00 Z            M 587.00,569.00            C 587.00,569.00 587.00,498.00 587.00,498.00              587.00,498.00 588.00,482.00 588.00,482.00              588.00,482.00 588.00,447.00 588.00,447.00              588.00,447.00 589.04,430.00 589.04,430.00              589.04,430.00 589.04,415.00 589.04,415.00              589.04,415.00 590.00,403.00 590.00,403.00              590.00,403.00 591.00,363.00 591.00,363.00              591.00,363.00 592.00,346.00 592.00,346.00              592.00,346.00 592.00,243.00 592.00,243.00              592.01,239.43 591.88,234.20 593.93,231.15              598.70,224.08 607.53,232.05 611.19,236.17              619.77,245.82 622.98,256.32 623.00,269.00              623.00,269.00 623.00,377.00 623.00,377.00              623.00,377.00 622.00,392.00 622.00,392.00              622.00,392.00 622.00,407.00 622.00,407.00              622.00,407.00 621.00,423.00 621.00,423.00              621.00,423.00 620.00,459.00 620.00,459.00              620.00,459.00 619.00,476.00 619.00,476.00              619.00,476.00 619.00,510.00 619.00,510.00              619.00,510.00 618.00,527.00 618.00,527.00              618.00,527.00 618.00,674.00 618.00,674.00              618.00,687.82 619.07,712.49 616.55,725.00              614.86,733.41 611.91,741.40 604.00,745.91              598.59,749.00 591.04,748.93 585.00,749.00              585.00,749.00 571.00,750.00 571.00,750.00              571.00,750.00 548.00,751.00 548.00,751.00              548.00,751.00 532.00,752.00 532.00,752.00              532.00,752.00 472.00,755.00 472.00,755.00              472.00,755.00 455.00,756.00 455.00,756.00              455.00,756.00 408.00,756.00 408.00,756.00              408.00,756.00 391.00,757.00 391.00,757.00              391.00,757.00 348.00,757.00 348.00,757.00              338.95,756.99 324.28,755.21 316.00,751.66              295.62,742.93 282.10,721.03 282.00,699.00              282.00,699.00 282.00,576.00 282.00,576.00              282.00,576.00 281.00,561.00 281.00,561.00              281.00,561.00 281.00,399.00 281.00,399.00              281.00,399.00 280.00,384.00 280.00,384.00              280.00,384.00 280.00,288.00 280.00,288.00              280.00,288.00 279.00,267.00 279.00,267.00              279.00,267.00 280.00,254.00 280.00,254.00              280.07,247.68 279.45,229.85 283.56,225.46              286.60,221.96 290.76,223.48 293.99,225.46              300.14,229.67 305.37,237.34 308.33,244.00              313.92,256.53 311.06,261.15 311.00,273.00              311.00,273.00 311.00,283.00 311.00,283.00              311.00,283.00 310.00,296.00 310.00,296.00              310.00,296.00 311.00,311.00 311.00,311.00              311.00,311.00 311.00,409.00 311.00,409.00              311.00,409.00 312.00,424.00 312.00,424.00              312.00,424.00 312.00,577.04 312.00,577.04              312.00,577.04 328.00,577.04 328.00,577.04              328.00,577.04 340.00,578.00 340.00,578.00              340.00,578.00 459.00,578.00 459.00,578.00              459.00,578.00 471.00,577.09 471.00,577.09              471.00,577.09 503.00,574.83 503.00,574.83              503.00,574.83 538.00,570.57 538.00,570.57              538.00,570.57 558.00,566.87 558.00,566.87              567.39,565.56 578.44,564.34 587.00,569.00 Z            M 368.00,300.00            C 368.00,300.00 391.00,293.63 391.00,293.63              430.65,283.44 484.61,271.20 511.30,312.00              516.03,319.22 518.51,324.74 520.96,333.00              523.16,340.40 524.99,353.27 525.00,361.00              525.00,361.00 526.00,380.00 526.00,380.00              526.00,380.00 526.00,404.00 526.00,404.00              526.00,404.00 525.00,421.00 525.00,421.00              525.00,421.00 525.00,506.00 525.00,506.00              525.00,506.00 526.00,524.00 526.00,524.00              525.99,530.95 526.33,539.18 517.00,538.57              508.02,537.99 486.06,544.37 476.00,546.58              444.13,553.57 397.46,556.50 375.01,528.00              369.00,520.37 365.73,514.07 362.44,505.00              359.43,496.74 357.04,478.40 355.58,469.00              355.58,469.00 350.91,425.00 350.91,425.00              350.91,425.00 350.00,413.00 350.00,413.00              350.00,413.00 350.00,341.00 350.00,341.00              350.00,341.00 350.00,313.00 350.00,313.00              350.00,309.08 349.71,301.48 350.72,298.00              353.76,287.60 364.37,293.58 368.00,300.00 Z            M 494.04,330.00            C 483.83,327.96 480.70,326.98 470.00,327.00              452.01,327.03 424.52,333.26 407.00,338.29              407.00,338.29 390.00,342.79 390.00,342.79              387.78,343.26 383.44,343.73 382.02,345.58              380.76,347.23 381.00,350.96 381.00,353.00              381.00,353.00 381.00,437.00 381.00,437.00              381.00,437.00 385.28,485.00 385.28,485.00              385.28,485.00 388.00,504.00 388.00,504.00              400.77,506.57 406.56,508.06 420.00,508.00              434.80,507.93 454.49,503.65 469.00,500.13              469.00,500.13 487.00,496.00 487.00,496.00              489.01,495.57 492.71,495.00 494.00,493.28              495.15,491.71 494.00,482.73 494.00,480.00              494.00,480.00 494.00,391.00 494.00,391.00              494.00,391.00 495.00,376.00 495.00,376.00              495.00,376.00 495.00,357.00 495.00,357.00              495.00,357.00 494.04,345.00 494.04,345.00              494.04,345.00 494.04,330.00 494.04,330.00 Z            M 457.10,420.04            C 462.50,418.44 465.81,420.98 469.71,424.62              476.29,430.75 481.55,440.12 483.29,449.00              483.51,451.49 483.87,453.45 483.29,456.00              482.07,465.78 469.82,477.92 461.00,481.53              455.90,483.61 451.44,484.11 446.00,483.99              419.94,483.39 395.05,458.83 393.18,433.00              392.82,427.97 394.38,420.50 401.00,421.45              409.44,422.66 415.80,435.35 420.09,438.15              429.03,443.97 442.39,438.21 448.67,430.96              452.31,426.77 452.51,423.61 457.10,420.04 Z            M 1402.00,734.00            C 1413.99,729.81 1420.20,724.24 1430.00,716.65              1450.95,700.42 1458.57,692.43 1477.00,674.00              1481.43,669.57 1496.91,654.03 1498.94,649.00              1499.58,647.01 1499.00,640.63 1498.94,638.00              1498.94,638.00 1498.94,620.00 1498.94,620.00              1498.94,620.00 1498.00,604.00 1498.00,604.00              1498.00,604.00 1498.00,544.00 1498.00,544.00              1498.00,544.00 1499.00,532.00 1499.00,532.00              1499.00,532.00 1499.00,523.00 1499.00,523.00              1500.53,501.96 1505.12,476.68 1517.09,459.00              1535.37,431.99 1576.65,414.87 1603.83,439.62              1610.07,445.30 1618.00,457.11 1621.18,465.00              1625.24,475.07 1626.12,481.26 1626.00,492.00              1625.81,508.01 1615.97,535.22 1609.30,550.00              1595.00,581.72 1578.60,612.60 1559.95,642.00              1559.95,642.00 1540.58,670.00 1540.58,670.00              1538.36,673.07 1532.80,679.89 1531.82,683.00              1530.60,686.27 1531.65,689.68 1531.82,693.00              1531.82,693.00 1534.43,714.00 1534.43,714.00              1534.97,717.15 1535.44,720.92 1538.28,722.86              1540.31,724.26 1546.40,725.46 1549.00,725.92              1556.89,727.30 1564.99,728.09 1573.00,728.00              1607.30,727.60 1633.11,706.06 1650.58,678.00              1677.81,634.24 1688.62,582.92 1698.20,533.00              1698.20,533.00 1710.35,471.00 1710.35,471.00              1711.70,465.04 1713.35,452.78 1720.02,450.64              1725.91,448.75 1733.38,456.83 1736.51,461.01              1743.63,470.53 1746.94,480.16 1747.00,492.00              1747.03,498.28 1746.31,506.05 1748.00,512.00              1754.26,499.22 1774.11,477.05 1785.00,467.73              1791.55,462.13 1796.94,457.43 1806.00,457.04              1830.12,455.99 1846.37,487.37 1852.66,507.00              1860.64,531.91 1862.30,560.98 1862.00,587.00              1862.00,587.00 1861.00,602.00 1861.00,602.00              1861.00,602.00 1860.00,652.00 1860.00,652.00              1860.00,652.00 1859.00,666.00 1859.00,666.00              1859.00,666.00 1859.00,690.00 1859.00,690.00              1859.00,690.00 1860.00,703.00 1860.00,703.00              1860.00,703.00 1860.00,722.00 1860.00,722.00              1882.89,703.42 1901.05,681.15 1920.28,659.00              1920.28,659.00 1928.13,650.00 1928.13,650.00              1933.18,644.14 1936.03,639.37 1943.99,644.61              1952.95,650.52 1964.86,670.04 1960.97,681.00              1959.42,685.37 1947.83,697.70 1944.13,702.00              1944.13,702.00 1904.00,746.00 1904.00,746.00              1895.00,755.00 1879.84,771.37 1866.00,770.87              1856.20,770.51 1847.16,760.58 1842.09,753.00              1830.98,736.41 1831.21,720.94 1829.91,702.00              1829.91,702.00 1829.00,681.00 1829.00,681.00              1829.00,681.00 1828.00,666.00 1828.00,666.00              1828.00,666.00 1828.00,639.00 1828.00,639.00              1828.00,639.00 1829.00,622.00 1829.00,622.00              1829.00,622.00 1829.00,606.00 1829.00,606.00              1829.00,606.00 1830.00,590.00 1830.00,590.00              1830.00,590.00 1830.00,573.00 1830.00,573.00              1830.00,573.00 1830.96,561.00 1830.96,561.00              1830.96,561.00 1830.96,547.00 1830.96,547.00              1830.96,547.00 1828.56,516.00 1828.56,516.00              1828.56,516.00 1825.00,500.00 1825.00,500.00              1821.79,501.44 1819.00,502.45 1816.00,504.39              1801.76,513.56 1785.89,534.84 1776.33,549.00              1776.33,549.00 1758.58,575.00 1758.58,575.00              1755.48,579.37 1747.23,590.28 1746.14,595.00              1746.14,595.00 1746.14,603.00 1746.14,603.00              1746.14,603.00 1745.00,617.00 1745.00,617.00              1745.00,617.00 1743.09,644.00 1743.09,644.00              1743.09,644.00 1738.83,694.00 1738.83,694.00              1738.83,694.00 1737.00,717.00 1737.00,717.00              1737.00,717.00 1736.00,736.00 1736.00,736.00              1736.00,736.00 1736.00,755.00 1736.00,755.00              1735.98,758.86 1736.01,764.75 1732.70,767.40              1728.09,771.08 1721.67,765.78 1718.44,762.56              1708.81,752.97 1705.02,741.30 1705.00,728.00              1705.00,728.00 1705.00,709.00 1705.00,709.00              1705.00,709.00 1705.96,697.00 1705.96,697.00              1705.96,697.00 1705.96,688.00 1705.96,688.00              1705.96,688.00 1707.04,672.00 1707.04,672.00              1707.32,665.59 1709.53,654.84 1708.00,649.00              1706.66,657.70 1698.24,678.62 1694.25,687.00              1681.96,712.85 1673.89,727.62 1652.00,747.16              1645.48,752.98 1638.87,758.78 1631.00,762.73              1614.45,771.03 1598.97,771.21 1581.00,771.00              1566.90,770.83 1548.72,767.33 1537.00,759.23              1520.45,747.78 1510.90,729.36 1507.00,710.00              1507.00,710.00 1487.91,729.91 1487.91,729.91              1487.91,729.91 1462.00,752.42 1462.00,752.42              1453.62,759.29 1436.14,774.14 1426.00,776.47              1423.14,777.13 1419.00,777.04 1416.00,777.00              1406.85,776.87 1399.75,771.45 1393.80,764.83              1382.56,752.32 1376.36,736.19 1372.65,720.00              1366.79,694.44 1368.00,670.89 1368.00,645.00              1368.00,645.00 1368.00,592.00 1368.00,592.00              1368.00,592.00 1369.00,575.00 1369.00,575.00              1369.00,575.00 1369.00,523.00 1369.00,523.00              1368.93,517.23 1367.41,503.64 1366.11,498.00              1365.46,495.17 1364.62,490.72 1362.49,488.70              1358.41,484.84 1345.59,482.89 1340.00,483.01              1323.49,483.39 1313.26,496.95 1304.13,509.00              1304.13,509.00 1286.26,535.00 1286.26,535.00              1286.26,535.00 1248.86,590.00 1248.86,590.00              1242.91,598.35 1228.59,618.65 1226.10,628.00              1225.80,630.11 1225.99,632.80 1226.10,635.00              1226.10,635.00 1226.10,655.00 1226.10,655.00              1226.10,655.00 1227.00,671.00 1227.00,671.00              1227.00,671.00 1227.00,714.00 1227.00,714.00              1227.00,714.00 1226.00,729.00 1226.00,729.00              1226.00,729.00 1226.00,740.00 1226.00,740.00              1226.00,740.00 1225.00,757.00 1225.00,757.00              1225.00,757.00 1224.09,767.00 1224.09,767.00              1224.09,767.00 1222.17,792.00 1222.17,792.00              1222.17,792.00 1219.83,823.00 1219.83,823.00              1219.83,823.00 1216.09,865.00 1216.09,865.00              1216.09,865.00 1212.00,921.00 1212.00,921.00              1212.00,921.00 1212.00,930.00 1212.00,930.00              1212.00,930.00 1210.00,961.00 1210.00,961.00              1210.00,961.00 1208.96,977.00 1208.96,977.00              1208.96,977.00 1208.96,992.00 1208.96,992.00              1208.96,992.00 1208.00,1004.00 1208.00,1004.00              1208.00,1004.00 1208.00,1055.00 1208.00,1055.00              1207.99,1058.57 1208.12,1063.80 1206.07,1066.85              1201.30,1073.92 1192.47,1065.95 1188.81,1061.83              1180.23,1052.18 1177.02,1041.68 1177.00,1029.00              1177.00,1029.00 1177.00,973.00 1177.00,973.00              1177.00,973.00 1178.00,958.00 1178.00,958.00              1178.00,958.00 1181.00,901.00 1181.00,901.00              1181.00,901.00 1181.00,892.00 1181.00,892.00              1181.00,892.00 1189.00,794.00 1189.00,794.00              1189.00,794.00 1189.00,786.00 1189.00,786.00              1189.00,786.00 1193.09,738.00 1193.09,738.00              1193.09,738.00 1194.00,728.00 1194.00,728.00              1194.00,728.00 1195.00,702.00 1195.00,702.00              1195.00,702.00 1196.00,685.00 1196.00,685.00              1196.00,685.00 1196.00,648.00 1196.00,648.00              1196.00,648.00 1195.00,633.00 1195.00,633.00              1195.00,633.00 1195.00,614.00 1195.00,614.00              1195.00,614.00 1194.00,597.00 1194.00,597.00              1194.00,597.00 1194.00,537.00 1194.00,537.00              1194.09,529.73 1196.11,526.41 1194.00,519.00              1188.47,529.29 1168.28,545.59 1158.00,551.94              1154.46,554.12 1140.41,559.85 1139.20,562.27              1138.07,564.22 1138.98,569.69 1139.20,572.00              1139.20,572.00 1141.00,592.00 1141.00,592.00              1141.42,627.80 1138.20,658.16 1125.42,692.00              1118.91,709.26 1109.73,727.16 1095.99,739.83              1086.54,748.54 1077.13,753.22 1065.00,756.98              1057.30,759.36 1044.04,761.17 1036.00,760.99              1023.05,760.69 1009.87,757.72 999.00,750.40              987.91,742.95 978.43,730.53 971.85,719.00              958.31,695.26 950.12,663.90 945.75,637.00              944.22,627.55 942.89,611.53 943.00,602.00              943.00,602.00 943.91,592.00 943.91,592.00              947.57,538.78 964.09,490.01 1007.00,455.31              1016.61,447.54 1027.60,443.15 1040.00,443.00              1043.99,442.96 1048.34,442.65 1052.00,444.45              1055.92,446.37 1058.33,449.64 1061.17,451.08              1063.74,452.39 1067.22,452.11 1076.00,457.46              1087.28,464.33 1098.39,475.73 1106.60,486.00              1112.71,493.64 1121.31,504.59 1124.00,514.00              1143.23,508.52 1166.78,483.29 1177.67,467.00              1177.67,467.00 1188.22,450.00 1188.22,450.00              1189.88,446.86 1191.89,441.73 1195.10,439.86              1197.67,438.69 1199.85,439.75 1201.58,439.86              1204.36,439.57 1205.64,437.93 1209.00,438.45              1217.03,439.68 1225.25,452.09 1228.33,459.00              1233.91,471.52 1231.43,478.42 1230.17,491.00              1230.17,491.00 1227.00,531.00 1227.00,531.00              1226.93,536.50 1225.60,538.65 1227.00,544.00              1229.35,537.86 1242.42,519.88 1247.00,513.00              1247.00,513.00 1276.63,470.00 1276.63,470.00              1283.64,460.66 1293.61,448.82 1304.00,443.33              1311.58,439.31 1320.68,438.95 1329.00,439.84              1359.46,443.08 1379.70,464.04 1389.95,492.00              1403.05,527.73 1400.06,566.60 1400.00,604.00              1400.00,604.00 1399.00,621.00 1399.00,621.00              1399.00,621.00 1399.00,706.00 1399.00,706.00              1399.01,715.42 1400.77,724.69 1402.00,734.00 Z            M 1594.00,471.00            C 1586.50,471.01 1583.24,471.31 1576.00,473.67              1537.18,486.34 1531.50,523.72 1529.96,559.00              1529.96,559.00 1529.00,572.00 1529.00,572.00              1529.00,572.00 1529.00,595.00 1529.00,595.00              1529.00,599.28 1528.40,603.97 1530.00,608.00              1530.00,608.00 1550.58,573.00 1550.58,573.00              1561.22,554.21 1571.13,534.75 1579.86,515.00              1585.01,503.34 1593.42,483.51 1594.00,471.00 Z            M 3152.00,482.70            C 3152.00,482.70 3142.00,485.38 3142.00,485.38              3128.29,487.99 3115.40,489.11 3104.00,498.47              3092.95,507.54 3083.76,529.59 3078.40,543.00              3070.49,562.76 3056.02,598.91 3052.46,619.00              3052.46,619.00 3050.00,650.00 3050.00,650.00              3049.98,664.27 3050.11,678.94 3052.80,693.00              3053.66,697.44 3055.29,705.36 3058.42,708.61              3063.25,713.64 3076.19,715.92 3083.00,716.00              3125.22,716.49 3150.72,687.06 3168.25,652.00              3174.85,638.79 3178.61,630.27 3182.71,616.00              3185.79,605.25 3188.98,588.10 3189.00,577.00              3189.00,577.00 3189.00,559.00 3189.00,559.00              3188.78,540.70 3178.77,512.72 3168.08,498.00              3164.20,492.66 3158.57,484.31 3152.00,482.70 Z            M 2594.00,483.32            C 2562.37,487.63 2548.30,505.98 2534.75,533.00              2527.50,547.46 2520.40,562.23 2516.47,578.00              2510.89,600.42 2509.96,627.89 2510.00,651.00              2510.00,651.00 2511.00,669.00 2511.00,669.00              2511.00,669.00 2514.00,699.00 2514.00,699.00              2514.41,702.02 2515.46,710.49 2516.98,712.72              2518.82,715.40 2522.01,715.82 2525.00,715.96              2544.83,716.86 2564.50,696.61 2575.37,682.00              2588.15,664.83 2602.35,637.82 2607.53,617.00              2610.67,604.37 2612.98,575.37 2613.00,562.00              2613.00,562.00 2614.00,545.00 2614.00,545.00              2614.00,545.00 2614.00,503.00 2614.00,503.00              2613.98,500.12 2614.06,497.78 2613.03,495.01              2610.39,487.88 2601.28,483.23 2594.00,483.32 Z            M 1103.00,522.00            C 1097.93,507.50 1089.02,501.63 1077.00,493.41              1074.78,491.89 1069.74,487.21 1067.87,486.63              1063.57,485.30 1063.08,490.05 1062.59,493.00              1061.84,497.58 1062.06,510.88 1064.29,514.67              1066.17,517.86 1070.65,519.27 1074.00,520.28              1087.90,524.47 1089.86,522.60 1103.00,522.00 Z            M 1034.00,496.00            C 1022.60,499.88 1008.34,519.79 1001.95,530.00              982.94,560.35 977.33,584.83 974.91,620.00              974.91,620.00 974.04,628.00 974.04,628.00              973.77,634.07 975.62,654.84 976.80,661.00              979.08,672.86 982.10,684.57 986.00,696.00              987.53,700.47 990.60,708.55 994.13,711.58              998.92,715.71 1014.73,718.15 1021.00,717.68              1037.50,716.44 1054.72,712.25 1067.96,701.76              1085.20,688.11 1096.39,658.76 1102.29,638.00              1109.25,613.50 1110.00,591.16 1110.00,566.00              1080.66,566.00 1059.38,550.85 1044.60,526.00              1039.78,517.88 1034.79,505.44 1034.00,496.00 Z            M 587.00,609.00            C 587.00,609.00 559.00,613.73 559.00,613.73              559.00,613.73 493.00,620.09 493.00,620.09              493.00,620.09 483.00,621.00 483.00,621.00              483.00,621.00 392.00,621.00 392.00,621.00              392.00,621.00 354.00,621.00 354.00,621.00              354.00,621.00 332.00,620.00 332.00,620.00              321.38,619.95 320.86,617.07 313.00,611.00              313.00,611.00 313.00,712.00 313.00,712.00              313.00,712.00 333.00,714.00 333.00,714.00              333.00,714.00 369.00,714.00 369.00,714.00              369.00,714.00 386.00,713.00 386.00,713.00              386.00,713.00 433.00,713.00 433.00,713.00              433.00,713.00 448.00,712.00 448.00,712.00              448.00,712.00 510.00,709.00 510.00,709.00              510.00,709.00 525.00,708.00 525.00,708.00              525.00,708.00 550.00,707.00 550.00,707.00              550.00,707.00 563.00,706.00 563.00,706.00              568.26,705.94 578.34,706.05 582.36,702.30              586.59,698.36 586.99,688.47 587.00,683.00              587.00,683.00 587.00,609.00 587.00,609.00 Z            M 2191.00,661.37            C 2178.48,662.78 2162.46,667.28 2154.79,678.00              2152.92,680.61 2151.25,683.86 2150.53,687.00              2149.16,692.94 2149.64,707.71 2152.85,713.00              2159.37,723.73 2183.40,735.47 2196.00,734.90              2216.56,733.96 2224.01,718.98 2230.42,702.00              2231.82,698.30 2236.23,687.60 2234.80,684.09              2233.73,681.49 2227.41,676.72 2225.00,674.90              2215.04,667.37 2203.75,661.50 2191.00,661.37 Z"
     style="stroke:#0068d3;stroke-opacity:1;stroke-width:0;stroke-dasharray:none;fill:#0068d3;fill-opacity:1" />
</svg>
